<svg xmlns="http://www.w3.org/2000/svg" viewBox="0 0 120 120" role="img" aria-labelledby="title">
  <title id="title">NASH AI Markets app icon</title>
  <defs><linearGradient id="g" x2="1" y2="1"><stop stop-color="#FFF0A8"/><stop offset=".25" stop-color="#D4AF37"/><stop offset=".55" stop-color="#8A5B13"/><stop offset=".78" stop-color="#F0C95A"/><stop offset="1" stop-color="#8B5A10"/></linearGradient><linearGradient id="e" x2="1" y2="1"><stop stop-color="#42D79A"/><stop offset=".52" stop-color="#0F8F5F"/><stop offset="1" stop-color="#06472F"/></linearGradient></defs>
  <rect width="120" height="120" rx="25" fill="#07100D"/>
  <path d="M58 19a42 42 0 1 0 39 26l-12 5a29 29 0 1 1-27-18Z" fill="url(#g)"/>
  <path d="M58 38a23 23 0 1 0 21 14l-12 5a10 10 0 1 1-9-6Z" fill="url(#g)"/>
  <circle cx="58" cy="61" r="6" fill="#F5D66B"/><path d="m57 61 29-29 4 4-29 29Z" fill="#D4AF37"/>
  <path d="m80 36 7-20 18-10-7 19-18 11Z" fill="url(#e)" stroke="#B9FFE1"/>
</svg>
