<svg xmlns="http://www.w3.org/2000/svg" viewBox="0 0 600 520" role="img" aria-labelledby="title desc">
  <title id="title">NASH AI Markets primary logo</title>
  <desc id="desc">Primary stacked logo with gold bullseye, emerald arrow and AI-powered market intelligence tagline.</desc>
  <defs>
    <linearGradient id="g" x1=".12" y1=".08" x2=".88" y2=".92"><stop stop-color="#FFF0A8"/><stop offset=".23" stop-color="#D4AF37"/><stop offset=".5" stop-color="#82510E"/><stop offset=".72" stop-color="#F0C95A"/><stop offset="1" stop-color="#8B5A10"/></linearGradient>
    <linearGradient id="e" x1=".1" y1=".9" x2=".9" y2=".1"><stop stop-color="#06472F"/><stop offset=".48" stop-color="#0F8F5F"/><stop offset="1" stop-color="#42D79A"/></linearGradient>
    <radialGradient id="a"><stop stop-color="#0F8F5F" stop-opacity=".28"/><stop offset="1" stop-color="#07100D" stop-opacity="0"/></radialGradient>
    <filter id="s" x="-30%" y="-30%" width="160%" height="170%"><feDropShadow dx="0" dy="12" stdDeviation="9" flood-color="#000" flood-opacity=".75"/></filter>
  </defs>
  <circle cx="300" cy="190" r="180" fill="url(#a)"/>
  <g filter="url(#s)">
    <path d="M300 48a142 142 0 1 0 131 87l-39 16a100 100 0 1 1-92-61Z" fill="url(#g)"/>
    <path d="M300 112a78 78 0 1 0 72 48l-39 16a36 36 0 1 1-33-22Z" fill="url(#g)"/>
    <circle cx="300" cy="190" r="20" fill="#F5D66B"/>
    <path d="m297 193 104-104 15 15-104 104Z" fill="#D4AF37"/>
    <path d="m379 111 25-72 66-35-24 68-67 39Z" fill="url(#e)" stroke="#C6FFE8" stroke-width="3"/>
    <path d="m404 39 42 33" stroke="#E1FFF3" stroke-opacity=".65" stroke-width="2"/>
  </g>
  <text x="300" y="405" fill="url(#g)" font-family="Poppins,Arial,sans-serif" font-size="66" font-weight="700" letter-spacing="14" text-anchor="middle">NASH <tspan fill="url(#e)">AI</tspan></text>
  <text x="300" y="454" fill="#F8F9FA" font-family="Poppins,Arial,sans-serif" font-size="25" font-weight="500" letter-spacing="22" text-anchor="middle">MARKETS</text>
  <path d="M90 492h70m280 0h70" stroke="#D4AF37"/>
  <text x="300" y="498" fill="#AEB6BA" font-family="Poppins,Arial,sans-serif" font-size="12" letter-spacing="3" text-anchor="middle">AI-POWERED MARKET INTELLIGENCE</text>
</svg>
