<svg xmlns="http://www.w3.org/2000/svg" width="1200" height="630" viewBox="0 0 1200 630" role="img" aria-labelledby="title description">
  <title id="title">NASH AI Markets — Project Bullseye</title>
  <desc id="description">Prepare the session, see the risk and know when to stand aside. Join the launch waiting list.</desc>
  <defs>
    <radialGradient id="heroGlow" cx="82%" cy="30%" r="72%">
      <stop offset="0" stop-color="#174132"/>
      <stop offset=".5" stop-color="#0a1713"/>
      <stop offset="1" stop-color="#050807"/>
    </radialGradient>
    <linearGradient id="panel" x1="0" y1="0" x2="1" y2="1">
      <stop offset="0" stop-color="#10201a"/>
      <stop offset="1" stop-color="#080d0b"/>
    </linearGradient>
    <linearGradient id="line" x1="0" y1="0" x2="1" y2="0">
      <stop offset="0" stop-color="#62e6b1" stop-opacity="0"/>
      <stop offset=".52" stop-color="#62e6b1" stop-opacity=".8"/>
      <stop offset="1" stop-color="#62e6b1" stop-opacity="0"/>
    </linearGradient>
    <filter id="glow" x="-100%" y="-100%" width="300%" height="300%">
      <feGaussianBlur stdDeviation="7"/>
    </filter>
  </defs>

  <rect width="1200" height="630" fill="url(#heroGlow)"/>
  <g opacity=".075" stroke="#62e6b1">
    <path d="M0 90.5h1200M0 180.5h1200M0 270.5h1200M0 360.5h1200M0 450.5h1200M0 540.5h1200"/>
    <path d="M100.5 0v630M200.5 0v630M300.5 0v630M400.5 0v630M500.5 0v630M600.5 0v630M700.5 0v630M800.5 0v630M900.5 0v630M1000.5 0v630M1100.5 0v630"/>
  </g>
  <rect x="42" y="42" width="1116" height="546" rx="22" fill="none" stroke="#6bb798" stroke-opacity=".24"/>

  <g transform="translate(78 76)">
    <circle cx="23" cy="23" r="21.5" fill="#07110e" stroke="#62e6b1" stroke-width="1.5"/>
    <circle cx="23" cy="23" r="13" fill="none" stroke="#62e6b1" stroke-opacity=".55"/>
    <path d="M4 23h38M23 4v38" stroke="#62e6b1" stroke-opacity=".75"/>
    <circle cx="23" cy="23" r="4" fill="#62e6b1" filter="url(#glow)"/>
    <circle cx="23" cy="23" r="3" fill="#62e6b1"/>
    <text x="64" y="20" fill="#62e6b1" font-family="Arial, sans-serif" font-size="16" font-weight="800" letter-spacing="3.5">BULLSEYE</text>
    <text x="64" y="40" fill="#81948b" font-family="Arial, sans-serif" font-size="11" font-weight="700" letter-spacing="2.4">NASH AI MARKETS</text>
  </g>

  <text x="78" y="198" fill="#62e6b1" font-family="monospace" font-size="14" font-weight="700" letter-spacing="4">S&amp;P 500 SESSION WORKFLOW</text>
  <text x="74" y="274" fill="#eef5f1" font-family="Arial, sans-serif" font-size="60" font-weight="650" letter-spacing="-3">Prepare the session.</text>
  <text x="74" y="337" fill="#eef5f1" font-family="Arial, sans-serif" font-size="60" font-weight="650" letter-spacing="-3">See the risk.</text>
  <text x="74" y="400" fill="#d9ad5b" font-family="Georgia, serif" font-size="57" font-style="italic" letter-spacing="-2">Know when to stand aside.</text>

  <g transform="translate(76 458)">
    <rect width="338" height="62" rx="9" fill="#62e6b1" fill-opacity=".1" stroke="#62e6b1" stroke-opacity=".55"/>
    <text x="169" y="38" text-anchor="middle" fill="#78efc0" font-family="monospace" font-size="13" font-weight="700" letter-spacing="1">JOIN THE LAUNCH WAITING LIST</text>
  </g>

  <g transform="translate(790 112)">
    <rect width="304" height="346" rx="15" fill="url(#panel)" stroke="#62e6b1" stroke-opacity=".3"/>
    <text x="24" y="36" fill="#62e6b1" font-family="monospace" font-size="10" font-weight="700" letter-spacing="2">SESSION READINESS</text>
    <text x="24" y="76" fill="#eef5f1" font-family="Arial, sans-serif" font-size="28" font-weight="700">Evidence first</text>
    <text x="24" y="100" fill="#7f9188" font-family="Arial, sans-serif" font-size="12">Decision permission stays closed</text>
    <text x="24" y="117" fill="#7f9188" font-family="Arial, sans-serif" font-size="12">when required inputs are unavailable.</text>

    <g transform="translate(24 148)">
      <rect width="256" height="52" rx="8" fill="#0c1713" stroke="#2b463a"/>
      <circle cx="22" cy="26" r="5" fill="#62e6b1"/>
      <text x="41" y="23" fill="#6f8279" font-family="monospace" font-size="9" letter-spacing="1.5">CONTEXT</text>
      <text x="41" y="39" fill="#dce8e2" font-family="Arial, sans-serif" font-size="13" font-weight="700">ORIENT</text>
    </g>
    <g transform="translate(24 210)">
      <rect width="256" height="52" rx="8" fill="#0c1713" stroke="#4b4028"/>
      <circle cx="22" cy="26" r="5" fill="#d9ad5b"/>
      <text x="41" y="23" fill="#6f8279" font-family="monospace" font-size="9" letter-spacing="1.5">CONDITIONS</text>
      <text x="41" y="39" fill="#dce8e2" font-family="Arial, sans-serif" font-size="13" font-weight="700">PLAN</text>
    </g>
    <g transform="translate(24 272)">
      <rect width="256" height="52" rx="8" fill="#0c1713" stroke="#2b463a"/>
      <circle cx="22" cy="26" r="5" fill="#68776f"/>
      <text x="41" y="23" fill="#6f8279" font-family="monospace" font-size="9" letter-spacing="1.5">OUTCOME</text>
      <text x="41" y="39" fill="#dce8e2" font-family="Arial, sans-serif" font-size="13" font-weight="700">REVIEW</text>
    </g>
  </g>

  <rect x="42" y="554" width="1116" height="1" fill="url(#line)"/>
  <text x="78" y="577" fill="#607169" font-family="monospace" font-size="9" font-weight="700" letter-spacing="1.6">EDUCATIONAL DECISION SUPPORT · EXAMPLE PRODUCT VISUAL · NOT LIVE MARKET DATA</text>
  <text x="1122" y="577" text-anchor="end" fill="#71827a" font-family="monospace" font-size="10" font-weight="700" letter-spacing="1.8">NASH AIMARKETS.COM</text>
</svg>
